<svg width="164" height="410" viewBox="0 0 164 410" fill="none" xmlns="http://www.w3.org/2000/svg">
<path d="M93.5929 0.838636C109.075 -0.111156 125.158 -0.968447 139.535 4.86611C153.912 10.7007 165.964 25.3293 163.555 40.6538C160.704 58.6649 141.059 68.1409 123.769 73.8856C106.478 79.6302 86.552 86.8558 80.7257 104.12C71.4642 131.539 105.352 155.792 106.45 184.714C107.322 207.665 87.651 225.702 68.9322 239.02C50.2134 252.337 29.0612 266.844 24.4162 289.35C20.2305 309.659 31.0938 329.854 33.1517 350.48C34.8462 367.155 30.2269 384.974 18.4152 396.847C6.60349 408.721 -12.9532 413.257 -27.7397 405.372C-46.9754 395.107 -51.8781 368.44 -44.9426 347.772C-38.0071 327.104 -22.3898 310.766 -8.26615 294.168C5.8575 277.571 19.4502 258.651 20.8157 236.898C21.9644 218.685 14.3724 201.25 9.23717 183.738C4.10195 166.227 1.78602 145.937 12.137 130.919C21.4 117.481 38.1573 111.95 52.0121 103.338C83.4188 83.8039 52.9184 43.8106 70.2706 11.1577C73.2494 5.52651 93.5929 0.838636 93.5929 0.838636Z" fill="#F3ACC8"/>
</svg>
