<svg width="45" height="61" viewBox="0 0 45 61" fill="none" xmlns="http://www.w3.org/2000/svg">
<path d="M18.0808 28.0104L2.52839 39.9177C1.68429 40.564 1.54701 41.8024 2.22179 42.6837L14.034 58.1119C14.7087 58.9932 15.94 59.1838 16.7841 58.5375L32.3366 46.6303C33.1807 45.984 33.3179 44.7456 32.6432 43.8643L20.831 28.4361C20.1562 27.5547 18.9249 27.3642 18.0808 28.0104Z" stroke="white" stroke-width="3" stroke-miterlimit="22.9256" stroke-linecap="round" stroke-linejoin="round"/>
<path d="M16.1557 41.4531L16.0086 41.5657C15.0753 42.2803 14.9235 43.6496 15.6696 44.6241C16.4157 45.5986 17.7772 45.8093 18.7105 45.0947L18.8576 44.9821C19.7909 44.2675 19.9427 42.8982 19.1966 41.9237C18.4505 40.9492 17.089 40.7385 16.1557 41.4531Z" stroke="white" stroke-width="3" stroke-miterlimit="22.9256" stroke-linecap="round" stroke-linejoin="round"/>
<path d="M6.37206 43.3248L6.48466 43.4718C7.19925 44.4052 8.56853 44.557 9.54303 43.8109C10.5175 43.0648 10.7282 41.7033 10.0137 40.7699L9.90106 40.6229C9.18647 39.6895 7.81719 39.5377 6.84268 40.2838C5.86818 41.03 5.65747 42.3914 6.37206 43.3248Z" stroke="white" stroke-width="3" stroke-miterlimit="22.9256" stroke-linecap="round" stroke-linejoin="round"/>
<path d="M24.8514 45.7779L24.9641 45.9249C25.6786 46.8583 27.0479 47.0101 28.0224 46.264C28.9969 45.5178 29.2076 44.1564 28.4931 43.223L28.3805 43.076C27.6659 42.1426 26.2966 41.9908 25.3221 42.7369C24.3476 43.483 24.1369 44.8445 24.8514 45.7779Z" stroke="white" stroke-width="3" stroke-miterlimit="22.9256" stroke-linecap="round" stroke-linejoin="round"/>
<path d="M20.5458 2.82668L14.3685 21.4144C14.0332 22.4232 14.6153 23.5248 15.6686 23.8749L34.1079 30.0028C35.1612 30.3529 36.2869 29.8189 36.6222 28.81L42.7995 10.2223C43.1347 9.21349 42.5526 8.11187 41.4993 7.76181L23.0601 1.63384C22.0067 1.28378 20.881 1.81783 20.5458 2.82668Z" stroke="white" stroke-width="3" stroke-miterlimit="22.9256" stroke-linecap="round" stroke-linejoin="round"/>
<path d="M26.5045 15.0295L26.446 15.2053C26.0753 16.3208 26.719 17.5388 27.8837 17.9259C29.0484 18.313 30.2931 17.7225 30.6638 16.607L30.7222 16.4312C31.0929 15.3157 30.4493 14.0976 29.2846 13.7106C28.1199 13.3235 26.8752 13.914 26.5045 15.0295Z" stroke="white" stroke-width="3" stroke-miterlimit="22.9256" stroke-linecap="round" stroke-linejoin="round"/>
</svg>
