<svg width="42" height="58" viewBox="0 0 42 58" fill="none" xmlns="http://www.w3.org/2000/svg">
<path d="M27.2406 13.7828C29.5828 16.4376 33.6335 16.691 36.2883 14.3489C38.943 12.0068 39.1965 7.956 36.8543 5.30124C34.5122 2.64649 30.4614 2.39305 27.8067 4.73518C25.1519 7.07731 24.8985 11.1281 27.2406 13.7828Z" stroke="white" stroke-width="3" stroke-miterlimit="22.9256" stroke-linecap="round" stroke-linejoin="round"/>
<path fill-rule="evenodd" clip-rule="evenodd" d="M28.1447 19.7668L10.9939 32.5029C10.9132 32.591 10.8271 32.6759 10.7355 32.7567C9.34069 33.9873 7.21218 33.8542 5.98158 32.4593C4.75088 31.0644 4.88419 28.936 6.27899 27.7054C6.41149 27.5885 6.55058 27.484 6.69488 27.3917L21.3406 12.0965C21.4641 13.8761 22.1518 15.6307 23.4232 17.0717C24.7053 18.5249 26.3779 19.4291 28.1447 19.7668Z" stroke="white" stroke-width="3" stroke-miterlimit="22.9256" stroke-linecap="round" stroke-linejoin="round"/>
<path d="M27.2159 51.8217C21.2298 57.1029 11.0457 57.4861 5.76451 51.5C0.483313 45.5138 -0.221541 37.4777 5.76446 32.1965" stroke="white" stroke-width="3" stroke-miterlimit="22.9256" stroke-linecap="round" stroke-linejoin="round"/>
</svg>
