<svg width="61" height="50" viewBox="0 0 61 50" fill="none" xmlns="http://www.w3.org/2000/svg">
<path d="M30.251 1.00001L2 13.2408L30.251 25.4816L58.502 13.2408L30.251 1.00001Z" stroke="white" stroke-width="3" stroke-miterlimit="22.9256" stroke-linecap="round" stroke-linejoin="round"/>
<path fill-rule="evenodd" clip-rule="evenodd" d="M46.3577 21.9588V44.2646C46.3577 46.4937 39.1467 48.3008 30.2515 48.3008C21.3564 48.3008 14.1454 46.4937 14.1454 44.2646V21.9588L30.2514 28.9375L46.3577 21.9588Z" stroke="white" stroke-width="3" stroke-miterlimit="22.9256" stroke-linecap="round" stroke-linejoin="round"/>
<path fill-rule="evenodd" clip-rule="evenodd" d="M53.2684 15.509C53.3416 15.6528 53.3828 15.8151 53.3828 15.9867V32.4429C53.3828 33.0261 52.9058 33.5031 52.3226 33.5031C51.7394 33.5031 51.2624 33.0261 51.2624 32.4429V16.3782L53.2684 15.509V15.509Z" stroke="white" stroke-width="3" stroke-miterlimit="22.9256" stroke-linecap="round" stroke-linejoin="round"/>
<path d="M53.3828 38.8951C53.3828 37.1586 52.9082 35.751 52.3226 35.751C51.7371 35.751 51.2624 37.1586 51.2624 38.8951V42.9784C51.2624 44.7148 51.7371 46.1224 52.3226 46.1224C52.9082 46.1224 53.3828 44.7148 53.3828 42.9784V38.8951Z" stroke="white" stroke-width="3" stroke-miterlimit="22.9256" stroke-linecap="round" stroke-linejoin="round"/>
</svg>
